<svg version="1" xmlns="http://www.w3.org/2000/svg" width="872" height="872" viewBox="0 0 654.000000 654.000000"><path d="M41 327v198h19V373h138.7l49 76.3 49 76.2 57.4-.3c100.5-.6 114.3-1.6 138.3-9.6 44.6-14.9 80.9-46.6 100.5-87.7 21.4-44.7 27.4-107.6 15.1-157.7-6-24.5-15.7-48.3-26.3-64.5-24.3-37.2-64.5-64-109-72.6-19.1-3.7-29.2-4.1-102.8-4.1H298l-.2 27.6-.3 27.6-4.1-5.9c-14.4-20.4-37.4-37.7-58.9-44.2-16.2-5-18-5.1-108.6-5.1H41v198zm183.1-176.8c33 9 58.4 35.4 69.5 72.3 2.6 8.4 2.8 10.2 2.8 28.5.1 18.3-.1 20.1-2.7 29.5-7.9 28.8-27.3 53.8-50.2 65.1-17 8.3-10.9 7.8-102.2 8.2l-81.3.3V146.9l77.3.3 77.2.4 9.6 2.6zm237.9-.3c33.5 6 61.1 20.1 83.6 42.5 27.1 27.1 43.1 63.9 47.5 109.1 1.6 16.7.6 50.6-1.9 65.5-5.1 29.5-13.7 52.1-28.3 74-7.6 11.5-26.1 30.3-37.2 37.9-15.9 10.8-37.8 20.1-56.9 24.1-16.4 3.4-29.8 4-91 4H318V146.8l65.8.4c62.8.4 66.2.5 78.2 2.7zM296.8 447.4l-.3 42.5-38.2-59.7-38.3-59.7 3.8-.8c18.2-3.8 29.6-8.4 41.7-16.7 7.5-5.3 23.9-21.4 28.5-28.3l2.5-3.6.3 41.9c.1 23 .1 61 0 84.4z"/></svg>